<?xml version="1.0" encoding="utf-8"?>
<!-- Generator: Adobe Illustrator 21.1.0, SVG Export Plug-In . SVG Version: 6.00 Build 0)  -->
<svg version="1.1" id="Layer_1" xmlns="http://www.w3.org/2000/svg" xmlns:xlink="http://www.w3.org/1999/xlink" x="0px" y="0px"
	 viewBox="0 0 1000 726.9" style="enable-background:new 0 0 1000 726.9;" xml:space="preserve">
<style type="text/css">
	.st0{fill:#30C1D7;}
	.st1{fill:#EB5581;}
	.st2{fill:#2D5481;}
	.st3{fill:#231F20;}
	.st4{fill:#FFFFFF;}
	.st5{fill:none;stroke:#ED1C24;stroke-width:0.5;stroke-miterlimit:10;}
	.st6{fill:none;stroke:#ED1C24;stroke-width:0.5;stroke-miterlimit:10;stroke-dasharray:11.954,11.954;}
	.st7{fill:#ED1C24;}
</style>
<g>
	<g>
		<path d="M117.1,618.9H65.7v51.9c0,17.7,9.4,24.2,21.3,24.2c9.1,0,18.9-4.5,26.7-9.2l14.1,29.9c-12.5,8.5-26.8,15-47,15
			c-35.2,0-53.2-19.9-53.2-56.7v-55H0v-34h27.4v-38l38.3-10.5v48.5h51.4V618.9z"/>
		<path d="M275.4,726.9H238v-15.7c-9.2,11.4-23,19.3-42.5,19.3c-39.1,0-68.7-32.1-68.7-74.8s29.6-74.8,68.7-74.8
			c19.5,0,33.1,7.9,42.5,19.5v-15.7h37.4V726.9z M165.9,655.8c0,21.7,14.2,39.1,36.6,39.1c21.8,0,36.6-16.7,36.6-39.1
			s-14.8-39.1-36.6-39.1C180.1,616.7,165.9,634.1,165.9,655.8z"/>
		<path d="M432.8,636.4v90.4h-38.3v-78.1c0-20.5-10.3-31.8-27.7-31.8c-16.4,0-30,10.7-30,32.1v77.8h-38.3v-142h37.2v16.7
			c10.1-15.1,25.6-20.5,41.8-20.5C409.8,581,432.8,603.5,432.8,636.4z"/>
		<path d="M558.9,599.7v-83.8H597v211.1h-37.4v-15.7c-9.2,11.4-23,19.3-42.5,19.3c-39.1,0-68.7-32.1-68.7-74.8s29.6-74.8,68.7-74.8
			C536.1,581,549.6,588.5,558.9,599.7z M487.5,655.8c0,21.7,14.2,39.1,36.6,39.1c21.8,0,36.6-16.7,36.6-39.1s-14.8-39.1-36.6-39.1
			C501.7,616.7,487.5,634.1,487.5,655.8z"/>
		<path d="M755,655.6c0,4.4-0.3,9.7-0.7,12.9H653.5C657.6,689.1,672,698,690,698c12.3,0,25.6-5,35.9-13.6l22.4,24.6
			c-16.1,14.8-36.6,21.5-60.5,21.5c-43.5,0-73.7-29.6-73.7-74.3c0-44.7,29.3-75.2,71.8-75.2C726.8,581,754.8,611.4,755,655.6z
			 M653.7,642.5h62.9c-3.5-18.2-14.5-28.4-30.9-28.4C667.6,614,657.1,624.9,653.7,642.5z"/>
		<path d="M1000,636.4v90.4h-38.1v-78.1c0-20.5-10.4-31.8-27.7-31.8c-16.4,0-30,10.7-30,32.1v77.8h-38.3v-78.1
			c0-20.5-10.3-31.8-27.7-31.8c-16.4,0-30,10.7-30,32.1v77.8h-38.3v-142h37.2v16.7c10.1-15.1,25.6-20.5,41.8-20.5
			c20.5,0,37.4,9.2,46.9,24.3c11-18,29.6-24.3,48.2-24.3C977.4,581,1000,603.5,1000,636.4z"/>
	</g>
	<g>
		<path class="st0" d="M414.3,203.9c0-68.5,33.8-129.1,85.7-166.1C466.6,14.1,425.8,0,381.7,0C269.1,0,177.8,91.3,177.8,203.9v203.9
			h203.9c44.1,0,84.9-14.1,118.3-37.9C448.2,333,414.3,272.5,414.3,203.9z"/>
		<path class="st1" d="M618.3,0C574.2,0,533.4,14.1,500,37.9c51.8,37,85.7,97.6,85.7,166.1c0,68.5-33.8,129.1-85.7,166.1
			c33.4,23.8,74.2,37.9,118.3,37.9c112.6,0,203.9-91.3,203.9-203.9V0H618.3z"/>
		<path class="st2" d="M585.7,203.9c0-68.5-33.8-129.1-85.7-166.1c-51.8,37-85.7,97.6-85.7,166.1c0,68.5,33.8,129.1,85.7,166.1
			C551.8,333,585.7,272.5,585.7,203.9z"/>
	</g>
</g>
</svg>
