<?xml version="1.0" encoding="utf-8"?>
<!-- Generator: Adobe Illustrator 21.1.0, SVG Export Plug-In . SVG Version: 6.00 Build 0)  -->
<svg version="1.1" id="Layer_1" xmlns="http://www.w3.org/2000/svg" xmlns:xlink="http://www.w3.org/1999/xlink" x="0px" y="0px"
	 viewBox="0 0 1000 199.4" style="enable-background:new 0 0 1000 199.4;" xml:space="preserve">
<style type="text/css">
	.st0{fill:#30C1D7;}
	.st1{fill:#EB5581;}
	.st2{fill:#2D5481;}
	.st3{fill:#231F20;}
	.st4{fill:#FFFFFF;}
	.st5{fill:none;stroke:#ED1C24;stroke-width:0.5;stroke-miterlimit:10;}
	.st6{fill:none;stroke:#ED1C24;stroke-width:0.5;stroke-miterlimit:10;stroke-dasharray:11.954,11.954;}
	.st7{fill:#ED1C24;}
</style>
<g>
	<g>
		<path d="M431.1,83h-33.2v33.4c0,11.4,6,15.6,13.7,15.6c5.9,0,12.2-2.9,17.2-6l9.1,19.3c-8,5.5-17.3,9.6-30.3,9.6
			c-22.7,0-34.3-12.8-34.3-36.6V83h-17.7V61.1h17.7V36.6l24.7-6.7v31.2h33.2V83z"/>
		<path d="M533.1,152.6H509v-10.1c-6,7.4-14.8,12.5-27.4,12.5c-25.2,0-44.3-20.7-44.3-48.2s19.1-48.2,44.3-48.2
			c12.6,0,21.3,5.1,27.4,12.6V61.1h24.1V152.6z M462.5,106.8c0,14,9.2,25.2,23.6,25.2c14.1,0,23.6-10.8,23.6-25.2
			s-9.5-25.2-23.6-25.2C471.7,81.6,462.5,92.8,462.5,106.8z"/>
		<path d="M634.5,94.3v58.3h-24.7v-50.3c0-13.2-6.6-20.5-17.9-20.5c-10.6,0-19.4,6.9-19.4,20.7v50.2H548V61.1h24v10.8
			c6.5-9.7,16.5-13.2,26.9-13.2C619.7,58.6,634.5,73.1,634.5,94.3z"/>
		<path d="M715.7,70.6v-54h24.6v136h-24.1v-10.1c-6,7.4-14.8,12.5-27.4,12.5c-25.2,0-44.3-20.7-44.3-48.2s19.1-48.2,44.3-48.2
			C701.1,58.6,709.8,63.4,715.7,70.6z M669.7,106.8c0,14,9.2,25.2,23.6,25.2c14.1,0,23.6-10.8,23.6-25.2s-9.5-25.2-23.6-25.2
			C678.9,81.6,669.7,92.8,669.7,106.8z"/>
		<path d="M842.1,106.7c0,2.8-0.2,6.2-0.5,8.3h-64.9c2.6,13.2,11.9,19,23.5,19c7.9,0,16.5-3.2,23.1-8.8l14.5,15.9
			c-10.4,9.5-23.6,13.9-39,13.9c-28.1,0-47.5-19.1-47.5-47.9c0-28.8,18.9-48.5,46.3-48.5C824,58.6,842,78.2,842.1,106.7z
			 M776.8,98.2h40.5c-2.3-11.7-9.4-18.3-19.9-18.3C785.8,79.9,779,86.9,776.8,98.2z"/>
		<path d="M1000,94.3v58.3h-24.6v-50.3c0-13.2-6.7-20.5-17.9-20.5c-10.6,0-19.4,6.9-19.4,20.7v50.2h-24.7v-50.3
			c0-13.2-6.6-20.5-17.9-20.5c-10.6,0-19.4,6.9-19.4,20.7v50.2h-24.7V61.1h24v10.8c6.5-9.7,16.5-13.2,26.9-13.2
			c13.2,0,24.1,6,30.2,15.7c7.1-11.6,19.1-15.7,31.1-15.7C985.5,58.6,1000,73.1,1000,94.3z"/>
	</g>
	<g>
		<path class="st0" d="M115.6,99.7c0-33.5,16.5-63.1,41.9-81.2C141.2,6.9,121.3,0,99.7,0C44.6,0,0,44.6,0,99.7v99.7h99.7
			c21.6,0,41.5-6.9,57.8-18.5C132.2,162.8,115.6,133.2,115.6,99.7z"/>
		<path class="st1" d="M215.3,0c-21.6,0-41.5,6.9-57.8,18.5c25.3,18.1,41.9,47.7,41.9,81.2c0,33.5-16.5,63.1-41.9,81.2
			c16.3,11.6,36.3,18.5,57.8,18.5c55.1,0,99.7-44.6,99.7-99.7V0H215.3z"/>
		<path class="st2" d="M199.4,99.7c0-33.5-16.5-63.1-41.9-81.2c-25.3,18.1-41.9,47.7-41.9,81.2c0,33.5,16.5,63.1,41.9,81.2
			C182.9,162.8,199.4,133.2,199.4,99.7z"/>
	</g>
</g>
</svg>
